<?xml version="1.0" encoding="UTF-8" standalone="no"?>
<!-- Created with Inkscape (http://www.inkscape.org/) -->
<svg
   xmlns:dc="http://purl.org/dc/elements/1.1/"
   xmlns:cc="http://web.resource.org/cc/"
   xmlns:rdf="http://www.w3.org/1999/02/22-rdf-syntax-ns#"
   xmlns:svg="http://www.w3.org/2000/svg"
   xmlns="http://www.w3.org/2000/svg"
   xmlns:sodipodi="http://sodipodi.sourceforge.net/DTD/sodipodi-0.dtd"
   xmlns:inkscape="http://www.inkscape.org/namespaces/inkscape"
   width="857"
   height="561"
   id="svg2"
   sodipodi:version="0.32"
   inkscape:version="0.45"
   version="1.0"
   sodipodi:docbase="E:\Imachens\Wiki\Motorland"
   sodipodi:docname="Motorland FIA.svg"
   inkscape:output_extension="org.inkscape.output.svg.inkscape"
   sodipodi:modified="true">
  <defs
     id="defs4" />
  <sodipodi:namedview
     id="base"
     pagecolor="#ffffff"
     bordercolor="#666666"
     borderopacity="1.0"
     inkscape:pageopacity="0.0"
     inkscape:pageshadow="2"
     inkscape:zoom="0.49497475"
     inkscape:cx="749.46134"
     inkscape:cy="117.96783"
     inkscape:document-units="px"
     inkscape:current-layer="layer1"
     inkscape:window-width="1024"
     inkscape:window-height="742"
     inkscape:window-x="-4"
     inkscape:window-y="-4"
     width="857px"
     height="561px" />
  <metadata
     id="metadata7">
    <rdf:RDF>
      <cc:Work
         rdf:about="">
        <dc:format>image/svg+xml</dc:format>
        <dc:type
           rdf:resource="http://purl.org/dc/dcmitype/StillImage" />
      </cc:Work>
    </rdf:RDF>
  </metadata>
  <g
     inkscape:label="Capa 1"
     inkscape:groupmode="layer"
     id="layer1"
     transform="translate(-30.142849,-115.6479)">
    <g
       id="g2384">
      <path
         sodipodi:nodetypes="cccccc"
         id="path9172"
         d="M 304.87672,423.17821 L 356.30529,465.32107 C 362.70768,471.59142 355.41814,477.53365 348.80529,471.56596 L 336.66243,461.56596 C 334.83326,460.18085 333.69695,459.6181 330.52973,459.57104 L 303.80529,460.49453"
         style="fill:none;fill-rule:evenodd;stroke:#dcdcdc;stroke-width:7;stroke-linecap:butt;stroke-linejoin:miter;stroke-miterlimit:4;stroke-dasharray:none;stroke-opacity:1" />
      <path
         sodipodi:nodetypes="ccc"
         id="path8198"
         d="M 368.03888,359.65291 C 372.42483,384.26217 375.30303,400.02167 355.3101,405.62169 C 336.96734,409.70743 291.72311,419.31529 275.10484,403.08946"
         style="fill:none;fill-rule:evenodd;stroke:#dcdcdc;stroke-width:10;stroke-linecap:butt;stroke-linejoin:miter;stroke-miterlimit:4;stroke-dasharray:none;stroke-opacity:1" />
      <path
         sodipodi:nodetypes="cccccccccccccccccccccsccccc"
         id="path7225"
         d="M 789.51965,525.85216 L 557.37679,347.99502 C 540.69282,338.92518 532.84026,372.98586 509.96539,392.48335 C 477.8378,426.24611 445.36132,399.80989 391.27246,384.90721 C 371.00315,376.35404 369.28675,364.83787 365.51357,350.05694 L 349.35113,263.6889 C 347.23645,250.35538 341.87026,241.48934 332.68362,234.39448 L 299.34858,212.17112 C 291.56434,206.1782 276.50138,210.5279 273.08462,224.29295 L 265.0034,268.73966 C 263.82489,275.11274 261.13114,281.0299 256.92217,287.93256 C 245.71593,306.36997 226.54266,325.59721 194.16251,342.28074 C 173.30054,351.04908 168.19412,342.38144 164.16251,325.13788 L 139.16251,200.13788 C 137.36496,189.06393 142.14824,180.21268 150.35108,176.31071 L 163.98814,170.24979 C 174.56616,164.91367 172.50304,155.02949 161.46276,144.99598 C 125.35293,114.28337 55.48313,124.86747 52.36629,178.83609 C 56.86364,280.79616 100.58452,381.99165 182.73394,432.28074 C 228.69153,460.16916 257.1008,464.19619 299.8768,478.70931 L 837.01966,650.13788 C 843.82807,652.78019 848.21718,651.72879 849.46043,649.03194 C 851.2801,645.08474 848.85608,640.33832 842.01966,637.28074 L 820.59108,625.13788 C 813.96949,620.97699 812.64747,614.69628 810.59108,608.70931 L 801.30537,545.13788 C 799.93296,538.70931 797.48643,532.28073 789.51965,525.85216 z "
         style="fill:none;fill-rule:evenodd;stroke:#dcdcdc;stroke-width:10;stroke-linecap:butt;stroke-linejoin:miter;stroke-miterlimit:4;stroke-dasharray:none;stroke-opacity:1" />
      <path
         sodipodi:nodetypes="cc"
         id="path7227"
         d="M 735.22932,617.74689 C 764.26163,627.60465 809.55357,606.6024 803.41462,560.16819"
         style="fill:none;fill-rule:evenodd;stroke:#dcdcdc;stroke-width:10;stroke-linecap:butt;stroke-linejoin:miter;stroke-miterlimit:4;stroke-dasharray:none;stroke-opacity:1" />
      <path
         sodipodi:nodetypes="ccccc"
         id="path8200"
         d="M 650.94815,590.85168 C 635.60676,577.4428 616.51394,556.53393 606.70971,552.41077 L 557.40838,535.90861 C 553.2386,534.68429 549.21359,536.1143 547.73386,540.13739 L 540.94814,559.06596"
         style="fill:none;fill-rule:evenodd;stroke:#dcdcdc;stroke-width:10;stroke-linecap:butt;stroke-linejoin:miter;stroke-miterlimit:4;stroke-dasharray:none;stroke-opacity:1" />
      <path
         sodipodi:nodetypes="cccccccc"
         id="path13051"
         d="M 420.56681,394.25063 C 412.57474,392.26576 406.88257,392.8783 401.55346,407.63252 L 391.95701,441.47262 C 390.04203,456.8084 397.97281,458.69196 406.92975,461.93085 L 448.85108,474.30522 C 458.11541,478.02988 461.17834,483.91126 461.22545,491.73035 L 461.22545,512.69101 C 459.75487,530.73738 468.18575,531.97031 473.09474,533.90422"
         style="fill:none;fill-rule:evenodd;stroke:#dcdcdc;stroke-width:10;stroke-linecap:butt;stroke-linejoin:miter;stroke-miterlimit:4;stroke-dasharray:none;stroke-opacity:1" />
      <path
         sodipodi:nodetypes="ccscccccccccccccccccccccccccccccc"
         id="path2366"
         d="M 308.10882,481.33609 L 837.01958,650.13739 C 843.82799,652.7797 848.2171,651.7283 849.46035,649.03145 C 851.28002,645.08425 848.856,640.33783 842.01958,637.28025 L 820.591,625.13739 C 813.96941,620.9765 812.64739,614.69579 810.591,608.70882 L 801.30529,545.13739 C 799.93288,538.70882 797.48635,532.28024 789.51957,525.85167 L 557.37671,347.99453 C 540.69274,338.92469 532.84018,372.98537 509.96531,392.48286 C 477.83772,426.24562 445.36124,399.8094 391.27238,384.90672 C 371.00307,376.35355 369.28667,364.83738 365.51349,350.05645 L 349.35105,263.68841 C 347.23637,250.35489 341.87018,241.48885 332.68354,234.39399 L 299.3485,212.17063 C 291.56426,206.17771 276.5013,210.52741 273.08454,224.29246 L 265.00332,268.73917 C 263.82481,275.11225 261.13106,281.02941 256.92209,287.93207 C 245.71585,306.36948 226.54258,325.59672 194.16243,342.28025 C 173.30046,351.04859 168.19404,342.38095 164.16243,325.13739 L 139.16243,200.13739 C 137.36488,189.06344 142.14816,180.21219 150.351,176.31022 L 163.98806,170.2493 C 174.56608,164.91318 172.50296,155.029 161.46268,144.99549 C 125.35285,114.28288 55.48305,124.86698 52.366205,178.8356 C 55.961805,260.35185 84.628577,341.37939 137.96028,396.29449 C 145.53795,404.15636 150.51396,403.3999 158.9373,400.56408 L 198.33325,379.35088 C 220.60279,368.5804 237.32325,374.56727 249.34595,383.89656 L 298.33835,420.26206 C 307.38674,427.50149 313.93511,433.31234 309.9551,441.98034 L 301.36881,465.21384 C 300.5001,470.81045 296.3589,476.64081 308.10882,481.33609 z "
         style="fill:none;fill-rule:evenodd;stroke:#000000;stroke-width:10;stroke-linecap:butt;stroke-linejoin:miter;stroke-miterlimit:4;stroke-dasharray:none;stroke-opacity:1" />
      <path
         sodipodi:nodetypes="ccccc"
         id="path4306"
         d="M 513.77991,392.72404 L 542.70848,366.65262 C 548.81005,362.91092 551.56115,358.68422 562.70848,368.08119 L 705.56562,475.93833 C 719.26284,485.65018 737.93914,495.25275 763.091,507.99454"
         style="fill:none;fill-rule:evenodd;stroke:#000000;stroke-width:4;stroke-linecap:butt;stroke-linejoin:miter;stroke-miterlimit:4;stroke-dasharray:none;stroke-opacity:1" />
      <g
         transform="matrix(0.6050832,-0.7961622,0.7961622,0.6050832,140.44352,95.827451)"
         id="g2343">
        <rect
           style="opacity:1;fill:#000000;fill-opacity:1;fill-rule:evenodd;stroke:#000000;stroke-width:2.37353039;stroke-linecap:round;stroke-miterlimit:4;stroke-dasharray:none;stroke-dashoffset:0;stroke-opacity:1"
           id="rect2284"
           width="2.6264696"
           height="2.6264696"
           x="31.329615"
           y="653.83466" />
        <rect
           style="opacity:1;fill:#ffffff;fill-opacity:1;fill-rule:evenodd;stroke:#ffffff;stroke-width:2.37353039;stroke-linecap:round;stroke-miterlimit:4;stroke-dasharray:none;stroke-dashoffset:0;stroke-opacity:1"
           id="rect2288"
           width="2.6264696"
           height="2.6264696"
           x="36.329613"
           y="653.83466" />
        <rect
           style="opacity:1;fill:#ffffff;fill-opacity:1;fill-rule:evenodd;stroke:#ffffff;stroke-width:2.37353039;stroke-linecap:round;stroke-miterlimit:4;stroke-dasharray:none;stroke-dashoffset:0;stroke-opacity:1"
           id="rect2290"
           width="2.6264696"
           height="2.6264696"
           x="46.329613"
           y="653.83466" />
        <rect
           style="opacity:1;fill:#000000;fill-opacity:1;fill-rule:evenodd;stroke:#000000;stroke-width:2.37353039;stroke-linecap:round;stroke-miterlimit:4;stroke-dasharray:none;stroke-dashoffset:0;stroke-opacity:1"
           id="rect2292"
           width="2.6264696"
           height="2.6264696"
           x="41.329613"
           y="653.83466" />
        <rect
           style="opacity:1;fill:#000000;fill-opacity:1;fill-rule:evenodd;stroke:#000000;stroke-width:2.37353039;stroke-linecap:round;stroke-miterlimit:4;stroke-dasharray:none;stroke-dashoffset:0;stroke-opacity:1"
           id="rect2294"
           width="2.6264696"
           height="2.6264696"
           x="51.329613"
           y="653.83466" />
        <rect
           style="opacity:1;fill:#000000;fill-opacity:1;fill-rule:evenodd;stroke:#000000;stroke-width:2.37353039;stroke-linecap:round;stroke-miterlimit:4;stroke-dasharray:none;stroke-dashoffset:0;stroke-opacity:1"
           id="rect2296"
           width="2.6264696"
           height="2.6264696"
           x="61.329613"
           y="653.83466" />
        <rect
           style="opacity:1;fill:#ffffff;fill-opacity:1;fill-rule:evenodd;stroke:#ffffff;stroke-width:2.37353039;stroke-linecap:round;stroke-miterlimit:4;stroke-dasharray:none;stroke-dashoffset:0;stroke-opacity:1"
           id="rect2298"
           width="2.6264696"
           height="2.6264696"
           x="56.329613"
           y="653.83466" />
        <rect
           style="opacity:1;fill:#000000;fill-opacity:1;fill-rule:evenodd;stroke:#000000;stroke-width:2.37353039;stroke-linecap:round;stroke-miterlimit:4;stroke-dasharray:none;stroke-dashoffset:0;stroke-opacity:1"
           id="rect2315"
           width="2.6264696"
           height="2.6264696"
           x="31.329615"
           y="643.83466" />
        <rect
           style="opacity:1;fill:#ffffff;fill-opacity:1;fill-rule:evenodd;stroke:#ffffff;stroke-width:2.37353039;stroke-linecap:round;stroke-miterlimit:4;stroke-dasharray:none;stroke-dashoffset:0;stroke-opacity:1"
           id="rect2317"
           width="2.6264696"
           height="2.6264696"
           x="36.329613"
           y="643.83466" />
        <rect
           style="opacity:1;fill:#ffffff;fill-opacity:1;fill-rule:evenodd;stroke:#ffffff;stroke-width:2.37353039;stroke-linecap:round;stroke-miterlimit:4;stroke-dasharray:none;stroke-dashoffset:0;stroke-opacity:1"
           id="rect2319"
           width="2.6264696"
           height="2.6264696"
           x="46.329613"
           y="643.83466" />
        <rect
           style="opacity:1;fill:#000000;fill-opacity:1;fill-rule:evenodd;stroke:#000000;stroke-width:2.37353039;stroke-linecap:round;stroke-miterlimit:4;stroke-dasharray:none;stroke-dashoffset:0;stroke-opacity:1"
           id="rect2321"
           width="2.6264696"
           height="2.6264696"
           x="41.329613"
           y="643.83466" />
        <rect
           style="opacity:1;fill:#000000;fill-opacity:1;fill-rule:evenodd;stroke:#000000;stroke-width:2.37353039;stroke-linecap:round;stroke-miterlimit:4;stroke-dasharray:none;stroke-dashoffset:0;stroke-opacity:1"
           id="rect2323"
           width="2.6264696"
           height="2.6264696"
           x="51.329613"
           y="643.83466" />
        <rect
           style="opacity:1;fill:#000000;fill-opacity:1;fill-rule:evenodd;stroke:#000000;stroke-width:2.37353039;stroke-linecap:round;stroke-miterlimit:4;stroke-dasharray:none;stroke-dashoffset:0;stroke-opacity:1"
           id="rect2325"
           width="2.6264696"
           height="2.6264696"
           x="61.329613"
           y="643.83466" />
        <rect
           style="opacity:1;fill:#ffffff;fill-opacity:1;fill-rule:evenodd;stroke:#ffffff;stroke-width:2.37353039;stroke-linecap:round;stroke-miterlimit:4;stroke-dasharray:none;stroke-dashoffset:0;stroke-opacity:1"
           id="rect2327"
           width="2.6264696"
           height="2.6264696"
           x="56.329613"
           y="643.83466" />
        <rect
           style="opacity:1;fill:#000000;fill-opacity:1;fill-rule:evenodd;stroke:#000000;stroke-width:2.37353039;stroke-linecap:round;stroke-miterlimit:4;stroke-dasharray:none;stroke-dashoffset:0;stroke-opacity:1"
           id="rect2329"
           width="2.6264696"
           height="2.6264696"
           x="36.329613"
           y="648.83466" />
        <rect
           style="opacity:1;fill:#ffffff;fill-opacity:1;fill-rule:evenodd;stroke:#ffffff;stroke-width:2.37353039;stroke-linecap:round;stroke-miterlimit:4;stroke-dasharray:none;stroke-dashoffset:0;stroke-opacity:1"
           id="rect2331"
           width="2.6264696"
           height="2.6264696"
           x="41.329613"
           y="648.83466" />
        <rect
           style="opacity:1;fill:#ffffff;fill-opacity:1;fill-rule:evenodd;stroke:#ffffff;stroke-width:2.37353039;stroke-linecap:round;stroke-miterlimit:4;stroke-dasharray:none;stroke-dashoffset:0;stroke-opacity:1"
           id="rect2333"
           width="2.6264696"
           height="2.6264696"
           x="51.329613"
           y="648.83466" />
        <rect
           style="opacity:1;fill:#000000;fill-opacity:1;fill-rule:evenodd;stroke:#000000;stroke-width:2.37353039;stroke-linecap:round;stroke-miterlimit:4;stroke-dasharray:none;stroke-dashoffset:0;stroke-opacity:1"
           id="rect2335"
           width="2.6264696"
           height="2.6264696"
           x="46.329613"
           y="648.83466" />
        <rect
           style="opacity:1;fill:#000000;fill-opacity:1;fill-rule:evenodd;stroke:#000000;stroke-width:2.37353039;stroke-linecap:round;stroke-miterlimit:4;stroke-dasharray:none;stroke-dashoffset:0;stroke-opacity:1"
           id="rect2337"
           width="2.6264696"
           height="2.6264696"
           x="56.329613"
           y="648.83466" />
        <rect
           style="opacity:1;fill:#ffffff;fill-opacity:1;fill-rule:evenodd;stroke:#ffffff;stroke-width:2.37353039;stroke-linecap:round;stroke-miterlimit:4;stroke-dasharray:none;stroke-dashoffset:0;stroke-opacity:1"
           id="rect2339"
           width="2.6264696"
           height="2.6264696"
           x="31.329615"
           y="648.83466" />
        <rect
           style="opacity:1;fill:#ffffff;fill-opacity:1;fill-rule:evenodd;stroke:#ffffff;stroke-width:2.37353039;stroke-linecap:round;stroke-miterlimit:4;stroke-dasharray:none;stroke-dashoffset:0;stroke-opacity:1"
           id="rect2341"
           width="2.6264696"
           height="2.6264696"
           x="61.329613"
           y="648.83466" />
      </g>
      <path
         transform="matrix(0.6783964,0,0,0.7537739,204.84238,185.49242)"
         d="M 516.44048 213.32161 A 3.7880721 3.4092648 0 1 1  508.86433,213.32161 A 3.7880721 3.4092648 0 1 1  516.44048 213.32161 z"
         sodipodi:ry="3.4092648"
         sodipodi:rx="3.7880721"
         sodipodi:cy="213.32161"
         sodipodi:cx="512.6524"
         id="path7218"
         style="fill:#ffffff;fill-opacity:1;fill-rule:evenodd;stroke:#ffffff;stroke-width:4;stroke-linecap:round;stroke-miterlimit:4;stroke-dasharray:none;stroke-dashoffset:0;stroke-opacity:1"
         sodipodi:type="arc" />
      <path
         transform="matrix(0.6783964,0,0,0.7537739,140.46548,245.82874)"
         d="M 516.44048 213.32161 A 3.7880721 3.4092648 0 1 1  508.86433,213.32161 A 3.7880721 3.4092648 0 1 1  516.44048 213.32161 z"
         sodipodi:ry="3.4092648"
         sodipodi:rx="3.7880721"
         sodipodi:cy="213.32161"
         sodipodi:cx="512.6524"
         id="path7220"
         style="fill:#ffffff;fill-opacity:1;fill-rule:evenodd;stroke:#ffffff;stroke-width:4;stroke-linecap:round;stroke-miterlimit:4;stroke-dasharray:none;stroke-dashoffset:0;stroke-opacity:1"
         sodipodi:type="arc" />
      <path
         transform="matrix(0.6783964,0,0,0.7537739,28.166602,213.98399)"
         d="M 516.44048 213.32161 A 3.7880721 3.4092648 0 1 1  508.86433,213.32161 A 3.7880721 3.4092648 0 1 1  516.44048 213.32161 z"
         sodipodi:ry="3.4092648"
         sodipodi:rx="3.7880721"
         sodipodi:cy="213.32161"
         sodipodi:cx="512.6524"
         id="path13071"
         style="fill:#ffffff;fill-opacity:1;fill-rule:evenodd;stroke:#ffffff;stroke-width:4;stroke-linecap:round;stroke-miterlimit:4;stroke-dasharray:none;stroke-dashoffset:0;stroke-opacity:1"
         sodipodi:type="arc" />
      <path
         transform="matrix(0.6783964,0,0,0.7537739,-4.690541,85.055406)"
         d="M 516.44048 213.32161 A 3.7880721 3.4092648 0 1 1  508.86433,213.32161 A 3.7880721 3.4092648 0 1 1  516.44048 213.32161 z"
         sodipodi:ry="3.4092648"
         sodipodi:rx="3.7880721"
         sodipodi:cy="213.32161"
         sodipodi:cx="512.6524"
         id="path13073"
         style="fill:#ffffff;fill-opacity:1;fill-rule:evenodd;stroke:#ffffff;stroke-width:4;stroke-linecap:round;stroke-miterlimit:4;stroke-dasharray:none;stroke-dashoffset:0;stroke-opacity:1"
         sodipodi:type="arc" />
      <path
         transform="matrix(0.6783964,0,0,0.7537739,-63.261969,50.055409)"
         d="M 516.44048 213.32161 A 3.7880721 3.4092648 0 1 1  508.86433,213.32161 A 3.7880721 3.4092648 0 1 1  516.44048 213.32161 z"
         sodipodi:ry="3.4092648"
         sodipodi:rx="3.7880721"
         sodipodi:cy="213.32161"
         sodipodi:cx="512.6524"
         id="path13075"
         style="fill:#ffffff;fill-opacity:1;fill-rule:evenodd;stroke:#ffffff;stroke-width:4;stroke-linecap:round;stroke-miterlimit:4;stroke-dasharray:none;stroke-dashoffset:0;stroke-opacity:1"
         sodipodi:type="arc" />
      <path
         transform="matrix(0.6783964,0,0,0.7537739,-83.61911,111.12684)"
         d="M 516.44048 213.32161 A 3.7880721 3.4092648 0 1 1  508.86433,213.32161 A 3.7880721 3.4092648 0 1 1  516.44048 213.32161 z"
         sodipodi:ry="3.4092648"
         sodipodi:rx="3.7880721"
         sodipodi:cy="213.32161"
         sodipodi:cx="512.6524"
         id="path13077"
         style="fill:#ffffff;fill-opacity:1;fill-rule:evenodd;stroke:#ffffff;stroke-width:4;stroke-linecap:round;stroke-miterlimit:4;stroke-dasharray:none;stroke-dashoffset:0;stroke-opacity:1"
         sodipodi:type="arc" />
      <path
         transform="matrix(0.6783964,0,0,0.7537739,-170.76198,184.34113)"
         d="M 516.44048 213.32161 A 3.7880721 3.4092648 0 1 1  508.86433,213.32161 A 3.7880721 3.4092648 0 1 1  516.44048 213.32161 z"
         sodipodi:ry="3.4092648"
         sodipodi:rx="3.7880721"
         sodipodi:cy="213.32161"
         sodipodi:cx="512.6524"
         id="path13079"
         style="fill:#ffffff;fill-opacity:1;fill-rule:evenodd;stroke:#ffffff;stroke-width:4;stroke-linecap:round;stroke-miterlimit:4;stroke-dasharray:none;stroke-dashoffset:0;stroke-opacity:1"
         sodipodi:type="arc" />
      <path
         transform="matrix(0.6783964,0,0,0.7537739,-206.11912,23.269698)"
         d="M 516.44048 213.32161 A 3.7880721 3.4092648 0 1 1  508.86433,213.32161 A 3.7880721 3.4092648 0 1 1  516.44048 213.32161 z"
         sodipodi:ry="3.4092648"
         sodipodi:rx="3.7880721"
         sodipodi:cy="213.32161"
         sodipodi:cx="512.6524"
         id="path13081"
         style="fill:#ffffff;fill-opacity:1;fill-rule:evenodd;stroke:#ffffff;stroke-width:4;stroke-linecap:round;stroke-miterlimit:4;stroke-dasharray:none;stroke-dashoffset:0;stroke-opacity:1"
         sodipodi:type="arc" />
      <path
         transform="matrix(0.6783964,0,0,0.7537739,-177.19055,-1.3731616)"
         d="M 516.44048 213.32161 A 3.7880721 3.4092648 0 1 1  508.86433,213.32161 A 3.7880721 3.4092648 0 1 1  516.44048 213.32161 z"
         sodipodi:ry="3.4092648"
         sodipodi:rx="3.7880721"
         sodipodi:cy="213.32161"
         sodipodi:cx="512.6524"
         id="path13083"
         style="fill:#ffffff;fill-opacity:1;fill-rule:evenodd;stroke:#ffffff;stroke-width:4;stroke-linecap:round;stroke-miterlimit:4;stroke-dasharray:none;stroke-dashoffset:0;stroke-opacity:1"
         sodipodi:type="arc" />
      <path
         transform="matrix(0.6783964,0,0,0.7537739,-258.26197,-29.230305)"
         d="M 516.44048 213.32161 A 3.7880721 3.4092648 0 1 1  508.86433,213.32161 A 3.7880721 3.4092648 0 1 1  516.44048 213.32161 z"
         sodipodi:ry="3.4092648"
         sodipodi:rx="3.7880721"
         sodipodi:cy="213.32161"
         sodipodi:cx="512.6524"
         id="path13085"
         style="fill:#ffffff;fill-opacity:1;fill-rule:evenodd;stroke:#ffffff;stroke-width:4;stroke-linecap:round;stroke-miterlimit:4;stroke-dasharray:none;stroke-dashoffset:0;stroke-opacity:1"
         sodipodi:type="arc" />
      <path
         transform="matrix(0.6783964,0,0,0.7537739,-197.54769,241.12684)"
         d="M 516.44048 213.32161 A 3.7880721 3.4092648 0 1 1  508.86433,213.32161 A 3.7880721 3.4092648 0 1 1  516.44048 213.32161 z"
         sodipodi:ry="3.4092648"
         sodipodi:rx="3.7880721"
         sodipodi:cy="213.32161"
         sodipodi:cx="512.6524"
         id="path13087"
         style="fill:#ffffff;fill-opacity:1;fill-rule:evenodd;stroke:#ffffff;stroke-width:4;stroke-linecap:round;stroke-miterlimit:4;stroke-dasharray:none;stroke-dashoffset:0;stroke-opacity:1"
         sodipodi:type="arc" />
      <path
         transform="matrix(0.6783964,0,0,0.7537739,-126.47625,212.55542)"
         d="M 516.44048 213.32161 A 3.7880721 3.4092648 0 1 1  508.86433,213.32161 A 3.7880721 3.4092648 0 1 1  516.44048 213.32161 z"
         sodipodi:ry="3.4092648"
         sodipodi:rx="3.7880721"
         sodipodi:cy="213.32161"
         sodipodi:cx="512.6524"
         id="path13089"
         style="fill:#ffffff;fill-opacity:1;fill-rule:evenodd;stroke:#ffffff;stroke-width:4;stroke-linecap:round;stroke-miterlimit:4;stroke-dasharray:none;stroke-dashoffset:0;stroke-opacity:1"
         sodipodi:type="arc" />
      <path
         transform="matrix(0.6783964,0,0,0.7537739,-37.190541,272.91256)"
         d="M 516.44048 213.32161 A 3.7880721 3.4092648 0 1 1  508.86433,213.32161 A 3.7880721 3.4092648 0 1 1  516.44048 213.32161 z"
         sodipodi:ry="3.4092648"
         sodipodi:rx="3.7880721"
         sodipodi:cy="213.32161"
         sodipodi:cx="512.6524"
         id="path13091"
         style="fill:#ffffff;fill-opacity:1;fill-rule:evenodd;stroke:#ffffff;stroke-width:4;stroke-linecap:round;stroke-miterlimit:4;stroke-dasharray:none;stroke-dashoffset:0;stroke-opacity:1"
         sodipodi:type="arc" />
      <path
         transform="matrix(0.6783964,0,0,0.7537739,-45.761969,316.84113)"
         d="M 516.44048 213.32161 A 3.7880721 3.4092648 0 1 1  508.86433,213.32161 A 3.7880721 3.4092648 0 1 1  516.44048 213.32161 z"
         sodipodi:ry="3.4092648"
         sodipodi:rx="3.7880721"
         sodipodi:cy="213.32161"
         sodipodi:cx="512.6524"
         id="path13093"
         style="fill:#ffffff;fill-opacity:1;fill-rule:evenodd;stroke:#ffffff;stroke-width:4;stroke-linecap:round;stroke-miterlimit:4;stroke-dasharray:none;stroke-dashoffset:0;stroke-opacity:1"
         sodipodi:type="arc" />
      <path
         transform="matrix(0.6783964,0,0,0.7537739,501.38089,487.91256)"
         d="M 516.44048 213.32161 A 3.7880721 3.4092648 0 1 1  508.86433,213.32161 A 3.7880721 3.4092648 0 1 1  516.44048 213.32161 z"
         sodipodi:ry="3.4092648"
         sodipodi:rx="3.7880721"
         sodipodi:cy="213.32161"
         sodipodi:cx="512.6524"
         id="path13095"
         style="fill:#ffffff;fill-opacity:1;fill-rule:evenodd;stroke:#ffffff;stroke-width:4;stroke-linecap:round;stroke-miterlimit:4;stroke-dasharray:none;stroke-dashoffset:0;stroke-opacity:1"
         sodipodi:type="arc" />
      <path
         transform="matrix(0.6783964,0,0,0.7537739,467.09517,458.2697)"
         d="M 516.44048 213.32161 A 3.7880721 3.4092648 0 1 1  508.86433,213.32161 A 3.7880721 3.4092648 0 1 1  516.44048 213.32161 z"
         sodipodi:ry="3.4092648"
         sodipodi:rx="3.7880721"
         sodipodi:cy="213.32161"
         sodipodi:cx="512.6524"
         id="path13097"
         style="fill:#ffffff;fill-opacity:1;fill-rule:evenodd;stroke:#ffffff;stroke-width:4;stroke-linecap:round;stroke-miterlimit:4;stroke-dasharray:none;stroke-dashoffset:0;stroke-opacity:1"
         sodipodi:type="arc" />
      <path
         transform="matrix(0.6783964,0,0,0.7537739,449.59517,372.91256)"
         d="M 516.44048 213.32161 A 3.7880721 3.4092648 0 1 1  508.86433,213.32161 A 3.7880721 3.4092648 0 1 1  516.44048 213.32161 z"
         sodipodi:ry="3.4092648"
         sodipodi:rx="3.7880721"
         sodipodi:cy="213.32161"
         sodipodi:cx="512.6524"
         id="path13099"
         style="fill:#ffffff;fill-opacity:1;fill-rule:evenodd;stroke:#ffffff;stroke-width:4;stroke-linecap:round;stroke-miterlimit:4;stroke-dasharray:none;stroke-dashoffset:0;stroke-opacity:1"
         sodipodi:type="arc" />
      <path
         transform="matrix(-7.3999666e-2,8.6359219e-2,-0.1978954,-0.1553165,826.45999,496.189)"
         d="M 266.68026,492.50253 L 218.79968,413.07022 L 311.53037,411.32058 L 266.68026,492.50253 z "
         inkscape:randomized="0"
         inkscape:rounded="0"
         inkscape:flatsided="true"
         sodipodi:arg2="2.5991282"
         sodipodi:arg1="1.5519306"
         sodipodi:r2="20.680725"
         sodipodi:r1="53.547615"
         sodipodi:cy="438.96445"
         sodipodi:cx="265.6701"
         sodipodi:sides="3"
         id="path13102"
         style="fill:#ff0000;fill-opacity:1;fill-rule:evenodd;stroke:#ff0000;stroke-width:7;stroke-linecap:round;stroke-miterlimit:4;stroke-dasharray:none;stroke-dashoffset:0;stroke-opacity:1"
         sodipodi:type="star" />
      <path
         transform="matrix(3.7768859e-2,-0.1072724,0.2406642,7.3256743e-2,365.74469,552.65402)"
         d="M 266.68026,492.50253 L 218.79968,413.07022 L 311.53037,411.32058 L 266.68026,492.50253 z "
         inkscape:randomized="0"
         inkscape:rounded="0"
         inkscape:flatsided="true"
         sodipodi:arg2="2.5991282"
         sodipodi:arg1="1.5519306"
         sodipodi:r2="20.680725"
         sodipodi:r1="53.547615"
         sodipodi:cy="438.96445"
         sodipodi:cx="265.6701"
         sodipodi:sides="3"
         id="path13106"
         style="fill:#ff0000;fill-opacity:1;fill-rule:evenodd;stroke:#ff0000;stroke-width:7;stroke-linecap:round;stroke-miterlimit:4;stroke-dasharray:none;stroke-dashoffset:0;stroke-opacity:1"
         sodipodi:type="star" />
      <path
         transform="matrix(0.7212063,0,0,0.7867705,195.43443,191.29608)"
         d="M 506.42856 168.42857 A 17.142857 15.714286 0 1 1  472.14285,168.42857 A 17.142857 15.714286 0 1 1  506.42856 168.42857 z"
         sodipodi:ry="15.714286"
         sodipodi:rx="17.142857"
         sodipodi:cy="168.42857"
         sodipodi:cx="489.28571"
         id="path2208"
         style="fill:#ffffff;fill-opacity:1;fill-rule:evenodd;stroke:#000000;stroke-width:1.32753575;stroke-linecap:round;stroke-miterlimit:4;stroke-dasharray:none;stroke-dashoffset:0;stroke-opacity:1"
         sodipodi:type="arc" />
      <path
         id="text3181"
         d="M 549.59589,330.31726 L 547.95733,330.31726 L 547.95733,319.87598 C 547.56285,320.25225 547.04549,320.62852 546.40524,321.00477 C 545.76499,321.38104 545.18998,321.66324 544.6802,321.85136 L 544.6802,320.26742 C 545.59658,319.83655 546.39765,319.31463 547.08343,318.70168 C 547.76919,318.08875 548.25469,317.49401 548.53993,316.91747 L 549.59589,316.91747 L 549.59589,330.31726 z "
         style="font-size:18.64319038px;font-style:normal;font-weight:normal;writing-mode:lr-tb;fill:#000000;fill-opacity:1;stroke:none;stroke-width:1px;stroke-linecap:butt;stroke-linejoin:miter;stroke-opacity:1;font-family:Arial" />
      <path
         transform="matrix(0.7212063,0,0,0.7867705,129.02109,252.02051)"
         d="M 506.42856 168.42857 A 17.142857 15.714286 0 1 1  472.14285,168.42857 A 17.142857 15.714286 0 1 1  506.42856 168.42857 z"
         sodipodi:ry="15.714286"
         sodipodi:rx="17.142857"
         sodipodi:cy="168.42857"
         sodipodi:cx="489.28571"
         id="path3185"
         style="fill:#ffffff;fill-opacity:1;fill-rule:evenodd;stroke:#000000;stroke-width:1.32753575;stroke-linecap:round;stroke-miterlimit:4;stroke-dasharray:none;stroke-dashoffset:0;stroke-opacity:1"
         sodipodi:type="arc" />
      <path
         id="text3187"
         d="M 485.62222,389.46685 L 485.62222,391.04169 L 476.8013,391.04169 C 476.78916,390.64722 476.85289,390.26792 476.99247,389.9038 C 477.21701,389.30299 477.57658,388.71129 478.07119,388.12869 C 478.56579,387.54609 479.28038,386.87246 480.21497,386.1078 C 481.6654,384.91833 482.6455,383.97616 483.15528,383.28128 C 483.66505,382.58641 483.91993,381.92947 483.91994,381.31045 C 483.91993,380.66111 483.6878,380.1134 483.22355,379.66734 C 482.75929,379.2213 482.15393,378.99827 481.40748,378.99826 C 480.61854,378.99827 479.98739,379.23495 479.51403,379.7083 C 479.04067,380.18168 478.80095,380.8371 478.79488,381.67458 L 477.11081,381.50162 C 477.22611,380.2454 477.66003,379.28805 478.41255,378.62958 C 479.16508,377.97114 480.17552,377.64191 481.44389,377.64189 C 482.72439,377.64191 483.73787,377.99693 484.48433,378.70696 C 485.23078,379.41701 485.60401,380.29698 485.60402,381.34686 C 485.60401,381.88092 485.49477,382.40587 485.27631,382.9217 C 485.05782,383.43755 484.69522,383.98071 484.18848,384.55116 C 483.68174,385.12163 482.8397,385.9045 481.66237,386.89977 C 480.67923,387.72512 480.04808,388.28496 479.76892,388.57929 C 479.48975,388.87363 479.25914,389.16948 479.07708,389.46685 L 485.62222,389.46685 z "
         style="font-size:18.64319038px;font-style:normal;font-weight:normal;writing-mode:lr-tb;fill:#000000;fill-opacity:1;stroke:none;stroke-width:1px;stroke-linecap:butt;stroke-linejoin:miter;stroke-opacity:1;font-family:Arial" />
      <path
         transform="matrix(0.7212063,0,0,0.7867705,40.416752,226.6332)"
         d="M 506.42856 168.42857 A 17.142857 15.714286 0 1 1  472.14285,168.42857 A 17.142857 15.714286 0 1 1  506.42856 168.42857 z"
         sodipodi:ry="15.714286"
         sodipodi:rx="17.142857"
         sodipodi:cy="168.42857"
         sodipodi:cx="489.28571"
         id="path3191"
         style="fill:#ffffff;fill-opacity:1;fill-rule:evenodd;stroke:#000000;stroke-width:1.32753575;stroke-linecap:round;stroke-miterlimit:4;stroke-dasharray:none;stroke-dashoffset:0;stroke-opacity:1"
         sodipodi:type="arc" />
      <path
         id="text3193"
         d="M 388.41544,362.13148 L 390.054,361.91301 C 390.24213,362.84153 390.56225,363.51061 391.01438,363.92024 C 391.4665,364.32989 392.01723,364.53471 392.66659,364.5347 C 393.43732,364.53471 394.08819,364.26768 394.61921,363.73363 C 395.15022,363.19958 395.41573,362.53809 395.41574,361.74915 C 395.41573,360.99663 395.16994,360.3761 394.67838,359.88756 C 394.18681,359.39903 393.56173,359.15477 392.80314,359.15476 C 392.49363,359.15477 392.10826,359.21545 391.64704,359.33682 L 391.82911,357.89853 C 391.93834,357.91068 392.02634,357.91674 392.0931,357.91674 C 392.791,357.91674 393.41911,357.73468 393.97744,357.37055 C 394.53576,357.00643 394.81492,356.44507 394.81493,355.68647 C 394.81492,355.08568 394.61162,354.58804 394.20502,354.19356 C 393.79841,353.7991 393.27346,353.60187 392.63018,353.60186 C 391.99296,353.60187 391.46194,353.80214 391.03714,354.20266 C 390.61232,354.60321 390.33923,355.20402 390.21785,356.00508 L 388.57929,355.71378 C 388.77956,354.61535 389.23472,353.76421 389.94476,353.16036 C 390.6548,352.55653 391.5378,352.25461 392.59377,352.2546 C 393.32201,352.25461 393.99261,352.41088 394.60556,352.72341 C 395.21849,353.03596 395.6873,353.46229 396.01199,354.00239 C 396.33666,354.54252 396.499,355.11602 396.49901,355.72288 C 396.499,356.29942 396.34425,356.82437 396.03475,357.29772 C 395.72523,357.77109 395.26704,358.14736 394.66018,358.42651 C 395.44911,358.60858 396.06205,358.98636 396.49901,359.55985 C 396.93595,360.13335 397.15442,360.85098 397.15443,361.71274 C 397.15442,362.87794 396.72961,363.86563 395.88,364.6758 C 395.03036,365.48598 393.9562,365.89107 392.65749,365.89107 C 391.48622,365.89107 390.5137,365.54212 389.73994,364.84421 C 388.96617,364.14631 388.52467,363.24206 388.41544,362.13148 L 388.41544,362.13148 z "
         style="font-size:18.64319038px;font-style:normal;font-weight:normal;writing-mode:lr-tb;fill:#000000;fill-opacity:1;stroke:none;stroke-width:1px;stroke-linecap:butt;stroke-linejoin:miter;stroke-opacity:1;font-family:Arial" />
      <path
         transform="matrix(0.7212063,0,0,0.7867705,12.637561,104.90981)"
         d="M 506.42856 168.42857 A 17.142857 15.714286 0 1 1  472.14285,168.42857 A 17.142857 15.714286 0 1 1  506.42856 168.42857 z"
         sodipodi:ry="15.714286"
         sodipodi:rx="17.142857"
         sodipodi:cy="168.42857"
         sodipodi:cx="489.28571"
         id="path3197"
         style="fill:#ffffff;fill-opacity:1;fill-rule:evenodd;stroke:#000000;stroke-width:1.32753575;stroke-linecap:round;stroke-miterlimit:4;stroke-dasharray:none;stroke-dashoffset:0;stroke-opacity:1"
         sodipodi:type="arc" />
      <path
         id="text3199"
         d="M 365.87963,243.931 L 365.87963,240.7358 L 360.09004,240.7358 L 360.09004,239.23379 L 366.18003,230.58583 L 367.51819,230.58583 L 367.51819,239.23379 L 369.32061,239.23379 L 369.32061,240.7358 L 367.51819,240.7358 L 367.51819,243.931 L 365.87963,243.931 z M 365.87963,239.23379 L 365.87963,233.21663 L 361.7013,239.23379 L 365.87963,239.23379 z "
         style="font-size:18.64319038px;font-style:normal;font-weight:normal;writing-mode:lr-tb;fill:#000000;fill-opacity:1;stroke:none;stroke-width:1px;stroke-linecap:butt;stroke-linejoin:miter;stroke-opacity:1;font-family:Arial" />
      <path
         transform="matrix(0.7212063,0,0,0.7867705,-77.266016,58.442794)"
         d="M 506.42856 168.42857 A 17.142857 15.714286 0 1 1  472.14285,168.42857 A 17.142857 15.714286 0 1 1  506.42856 168.42857 z"
         sodipodi:ry="15.714286"
         sodipodi:rx="17.142857"
         sodipodi:cy="168.42857"
         sodipodi:cx="489.28571"
         id="path3203"
         style="fill:#ffffff;fill-opacity:1;fill-rule:evenodd;stroke:#000000;stroke-width:1.32753575;stroke-linecap:round;stroke-miterlimit:4;stroke-dasharray:none;stroke-dashoffset:0;stroke-opacity:1"
         sodipodi:type="arc" />
      <path
         id="text3205"
         d="M 270.72356,193.96838 L 272.44405,193.82273 C 272.57149,194.66022 272.86735,195.28985 273.33161,195.71162 C 273.79586,196.1334 274.3557,196.34429 275.01113,196.34429 C 275.80006,196.34429 276.46763,196.04692 277.01382,195.45218 C 277.56,194.85745 277.83309,194.06851 277.8331,193.08537 C 277.83309,192.15079 277.57062,191.41344 277.04568,190.87331 C 276.52073,190.3332 275.83344,190.06314 274.98382,190.06314 C 274.45584,190.06314 273.97944,190.183 273.55463,190.42271 C 273.12982,190.66243 272.79604,190.97346 272.55329,191.35578 L 271.01486,191.15551 L 272.30751,184.30086 L 278.94368,184.30086 L 278.94368,185.8666 L 273.61836,185.8666 L 272.89921,189.45323 C 273.70028,188.89491 274.5408,188.61575 275.42077,188.61574 C 276.58597,188.61575 277.5691,189.01932 278.37018,189.82646 C 279.17125,190.63361 279.57179,191.67136 279.5718,192.93972 C 279.57179,194.14741 279.2198,195.19123 278.51583,196.0712 C 277.66013,197.15143 276.4919,197.69155 275.01113,197.69155 C 273.79738,197.69155 272.80666,197.3517 272.03896,196.672 C 271.27127,195.9923 270.8328,195.0911 270.72356,193.96838 L 270.72356,193.96838 z "
         style="font-size:18.64319038px;font-style:normal;font-weight:normal;writing-mode:lr-tb;fill:#000000;fill-opacity:1;stroke:none;stroke-width:1px;stroke-linecap:butt;stroke-linejoin:miter;stroke-opacity:1;font-family:Arial" />
      <path
         transform="matrix(0.7212063,0,0,0.7867705,-112.11628,133.19408)"
         d="M 506.42856 168.42857 A 17.142857 15.714286 0 1 1  472.14285,168.42857 A 17.142857 15.714286 0 1 1  506.42856 168.42857 z"
         sodipodi:ry="15.714286"
         sodipodi:rx="17.142857"
         sodipodi:cy="168.42857"
         sodipodi:cx="489.28571"
         id="path3209"
         style="fill:#ffffff;fill-opacity:1;fill-rule:evenodd;stroke:#000000;stroke-width:1.32753575;stroke-linecap:round;stroke-miterlimit:4;stroke-dasharray:none;stroke-dashoffset:0;stroke-opacity:1"
         sodipodi:type="arc" />
      <path
         id="text3211"
         d="M 244.37561,262.13812 L 242.74615,262.26556 C 242.6005,261.62228 242.39416,261.15499 242.12714,260.86368 C 241.68412,260.3964 241.13793,260.16275 240.48858,260.16274 C 239.96666,260.16275 239.50847,260.3084 239.11401,260.59969 C 238.59816,260.97596 238.19156,261.52518 237.89419,262.24735 C 237.59682,262.96954 237.44207,263.9982 237.42993,265.33331 C 237.8244,264.73251 238.30686,264.28646 238.87733,263.99515 C 239.44779,263.70386 240.04556,263.55821 240.67064,263.5582 C 241.76301,263.55821 242.69305,263.96027 243.46075,264.76437 C 244.22844,265.56848 244.61228,266.60775 244.61229,267.88219 C 244.61228,268.71968 244.43174,269.49799 244.07066,270.21714 C 243.70956,270.93628 243.21344,271.48702 242.5823,271.86935 C 241.95114,272.25168 241.23503,272.44285 240.43396,272.44285 C 239.06849,272.44285 237.95488,271.94066 237.09312,270.93628 C 236.23135,269.93191 235.80047,268.27666 235.80047,265.97053 C 235.80047,263.39132 236.27687,261.51608 237.22966,260.3448 C 238.06108,259.32527 239.18076,258.81549 240.58871,258.81548 C 241.6386,258.81549 242.49885,259.10983 243.16945,259.69848 C 243.84004,260.28716 244.24209,261.10037 244.37561,262.13812 L 244.37561,262.13812 z M 237.68482,267.89129 C 237.68482,268.45569 237.80467,268.9958 238.04439,269.51164 C 238.2841,270.02749 238.6194,270.42044 239.05029,270.6905 C 239.48116,270.96056 239.93329,271.09559 240.40665,271.09559 C 241.09848,271.09559 241.69322,270.81643 242.19086,270.2581 C 242.68849,269.69978 242.93731,268.94119 242.93732,267.98232 C 242.93731,267.05988 242.69153,266.33314 242.19997,265.80212 C 241.70839,265.27111 241.08938,265.00561 240.34293,265.0056 C 239.60254,265.00561 238.97442,265.27111 238.45858,265.80212 C 237.94274,266.33314 237.68482,267.02953 237.68482,267.89129 L 237.68482,267.89129 z "
         style="font-size:18.64319038px;font-style:normal;font-weight:normal;writing-mode:lr-tb;fill:#000000;fill-opacity:1;stroke:none;stroke-width:1px;stroke-linecap:butt;stroke-linejoin:miter;stroke-opacity:1;font-family:Arial" />
      <path
         transform="matrix(0.7212063,0,0,0.7867705,-166.66452,187.74232)"
         d="M 506.42856 168.42857 A 17.142857 15.714286 0 1 1  472.14285,168.42857 A 17.142857 15.714286 0 1 1  506.42856 168.42857 z"
         sodipodi:ry="15.714286"
         sodipodi:rx="17.142857"
         sodipodi:cy="168.42857"
         sodipodi:cx="489.28571"
         id="path3215"
         style="fill:#ffffff;fill-opacity:1;fill-rule:evenodd;stroke:#000000;stroke-width:1.32753575;stroke-linecap:round;stroke-miterlimit:4;stroke-dasharray:none;stroke-dashoffset:0;stroke-opacity:1"
         sodipodi:type="arc" />
      <path
         id="text3217"
         d="M 181.4343,315.16614 L 181.4343,313.5913 L 190.07316,313.5913 L 190.07316,314.86574 C 189.22353,315.77 188.38149,316.97161 187.54705,318.47058 C 186.71259,319.96956 186.06779,321.51102 185.61263,323.09496 C 185.28492,324.21161 185.07555,325.43447 184.98452,326.76352 L 183.30044,326.76352 C 183.31865,325.71363 183.52498,324.44526 183.91945,322.95841 C 184.31392,321.47158 184.87983,320.03784 185.61719,318.65719 C 186.35453,317.27656 187.13892,316.11288 187.97034,315.16614 L 181.4343,315.16614 z "
         style="font-size:18.64319038px;font-style:normal;font-weight:normal;writing-mode:lr-tb;fill:#000000;fill-opacity:1;stroke:none;stroke-width:1px;stroke-linecap:butt;stroke-linejoin:miter;stroke-opacity:1;font-family:Arial" />
      <path
         transform="matrix(0.7212063,0,0,0.7867705,-191.41326,64.503704)"
         d="M 506.42856 168.42857 A 17.142857 15.714286 0 1 1  472.14285,168.42857 A 17.142857 15.714286 0 1 1  506.42856 168.42857 z"
         sodipodi:ry="15.714286"
         sodipodi:rx="17.142857"
         sodipodi:cy="168.42857"
         sodipodi:cx="489.28571"
         id="path3221"
         style="fill:#ffffff;fill-opacity:1;fill-rule:evenodd;stroke:#000000;stroke-width:1.32753575;stroke-linecap:round;stroke-miterlimit:4;stroke-dasharray:none;stroke-dashoffset:0;stroke-opacity:1"
         sodipodi:type="arc" />
      <path
         id="text3223"
         d="M 159.0979,196.28791 C 158.41819,196.0391 157.91449,195.68407 157.58678,195.22284 C 157.25906,194.76163 157.09521,194.20937 157.09521,193.56607 C 157.09521,192.59508 157.44416,191.77884 158.14207,191.11733 C 158.83997,190.45585 159.76849,190.12511 160.92762,190.12509 C 162.09282,190.12511 163.03044,190.46344 163.74049,191.14009 C 164.45052,191.81677 164.80554,192.6406 164.80555,193.61159 C 164.80554,194.23061 164.6432,194.76921 164.31854,195.22739 C 163.99385,195.68559 163.50076,196.0391 162.83928,196.28791 C 163.65855,196.55494 164.28211,196.98582 164.70997,197.58055 C 165.13781,198.17529 165.35173,198.88533 165.35174,199.71068 C 165.35173,200.85161 164.94816,201.81047 164.14102,202.58727 C 163.33387,203.36407 162.27184,203.75246 160.95493,203.75247 C 159.63801,203.75246 158.57598,203.36255 157.76884,202.58271 C 156.9617,201.80288 156.55812,200.83037 156.55813,199.66516 C 156.55812,198.79734 156.77812,198.07061 157.2181,197.48497 C 157.65808,196.89934 158.28468,196.50032 159.0979,196.28791 L 159.0979,196.28791 z M 158.77018,193.51145 C 158.77018,194.14261 158.97348,194.65846 159.38009,195.05899 C 159.78669,195.45953 160.31468,195.6598 160.96404,195.65979 C 161.59518,195.6598 162.11254,195.46105 162.51612,195.06354 C 162.91968,194.66604 163.12147,194.17903 163.12148,193.60249 C 163.12147,193.00169 162.91361,192.49647 162.49791,192.08682 C 162.0822,191.67719 161.56484,191.47237 160.94583,191.47236 C 160.32074,191.47237 159.80187,191.67264 159.3892,192.07316 C 158.97652,192.47371 158.77018,192.95314 158.77018,193.51145 L 158.77018,193.51145 z M 158.2422,199.67427 C 158.2422,200.14156 158.35295,200.59369 158.57447,201.03063 C 158.79597,201.46758 159.1252,201.80592 159.56216,202.04563 C 159.9991,202.28535 160.46943,202.4052 160.97314,202.4052 C 161.756,202.4052 162.40232,202.15335 162.9121,201.64964 C 163.42187,201.14594 163.67676,200.50569 163.67677,199.72889 C 163.67676,198.93995 163.41428,198.28756 162.88935,197.77172 C 162.36439,197.25588 161.70745,196.99796 160.91852,196.99795 C 160.14778,196.99796 159.50905,197.25284 159.00231,197.76261 C 158.49557,198.27239 158.2422,198.90961 158.2422,199.67427 L 158.2422,199.67427 z "
         style="font-size:18.64319038px;font-style:normal;font-weight:normal;writing-mode:lr-tb;fill:#000000;fill-opacity:1;stroke:none;stroke-width:1px;stroke-linecap:butt;stroke-linejoin:miter;stroke-opacity:1;font-family:Arial" />
      <path
         transform="matrix(0.7212063,0,0,0.7867705,-160.6036,23.592528)"
         d="M 506.42856 168.42857 A 17.142857 15.714286 0 1 1  472.14285,168.42857 A 17.142857 15.714286 0 1 1  506.42856 168.42857 z"
         sodipodi:ry="15.714286"
         sodipodi:rx="17.142857"
         sodipodi:cy="168.42857"
         sodipodi:cx="489.28571"
         id="path3227"
         style="fill:#ffffff;fill-opacity:1;fill-rule:evenodd;stroke:#000000;stroke-width:1.32753575;stroke-linecap:round;stroke-miterlimit:4;stroke-dasharray:none;stroke-dashoffset:0;stroke-opacity:1"
         sodipodi:type="arc" />
      <path
         id="text3229"
         d="M 187.63176,159.52777 L 189.2066,159.38212 C 189.34011,160.12251 189.595,160.65959 189.97126,160.99337 C 190.34752,161.32715 190.82999,161.49404 191.41866,161.49404 C 191.92236,161.49404 192.36386,161.37874 192.74316,161.14812 C 193.12245,160.91751 193.43348,160.60952 193.67623,160.22415 C 193.91898,159.83879 194.12228,159.3184 194.28614,158.66297 C 194.44999,158.00755 194.53192,157.33999 194.53193,156.66028 C 194.53192,156.58746 194.52889,156.47823 194.52282,156.33257 C 194.1951,156.85449 193.74754,157.27778 193.18011,157.60246 C 192.61268,157.92714 191.99822,158.08948 191.33673,158.08947 C 190.23222,158.08948 189.29763,157.68894 188.53297,156.88786 C 187.76831,156.08679 187.38598,155.03083 187.38598,153.71998 C 187.38598,152.36665 187.785,151.27732 188.58304,150.45196 C 189.38108,149.62662 190.3809,149.21394 191.58252,149.21393 C 192.45034,149.21394 193.24383,149.44759 193.96298,149.91487 C 194.68212,150.38218 195.22831,151.04822 195.60154,151.91301 C 195.97476,152.77781 196.16138,154.02949 196.16139,155.66804 C 196.16138,157.37337 195.97628,158.73125 195.6061,159.74169 C 195.23589,160.75214 194.68516,161.52135 193.95388,162.04933 C 193.22259,162.57731 192.36538,162.8413 191.38225,162.8413 C 190.33842,162.8413 189.48576,162.55152 188.82427,161.97195 C 188.16278,161.39239 187.76527,160.57766 187.63176,159.52777 L 187.63176,159.52777 z M 194.34076,153.63805 C 194.34075,152.6974 194.09042,151.95095 193.58975,151.39868 C 193.08908,150.84644 192.48675,150.57031 191.78279,150.5703 C 191.05453,150.57031 190.42035,150.86768 189.88023,151.4624 C 189.34011,152.05715 189.07005,152.82788 189.07006,153.77459 C 189.07005,154.62423 189.32646,155.31455 189.83927,155.84555 C 190.35207,156.37658 190.98474,156.64208 191.73727,156.64208 C 192.49586,156.64208 193.11942,156.37658 193.60796,155.84555 C 194.09649,155.31455 194.34075,154.57871 194.34076,153.63805 L 194.34076,153.63805 z "
         style="font-size:18.64319038px;font-style:normal;font-weight:normal;writing-mode:lr-tb;fill:#000000;fill-opacity:1;stroke:none;stroke-width:1px;stroke-linecap:butt;stroke-linejoin:miter;stroke-opacity:1;font-family:Arial" />
      <path
         transform="matrix(0.7212063,0,0,0.7867705,-256.5681,19.046842)"
         d="M 506.42856 168.42857 A 17.142857 15.714286 0 1 1  472.14285,168.42857 A 17.142857 15.714286 0 1 1  506.42856 168.42857 z"
         sodipodi:ry="15.714286"
         sodipodi:rx="17.142857"
         sodipodi:cy="168.42857"
         sodipodi:cx="489.28571"
         id="path3233"
         style="fill:#ffffff;fill-opacity:1;fill-rule:evenodd;stroke:#000000;stroke-width:1.32753575;stroke-linecap:round;stroke-miterlimit:4;stroke-dasharray:none;stroke-dashoffset:0;stroke-opacity:1"
         sodipodi:type="arc" />
      <path
         id="text3235"
         d="M 92.392969,158.06804 L 90.754408,158.06804 L 90.754408,147.62676 C 90.359934,148.00303 89.842574,148.37929 89.202326,148.75555 C 88.56207,149.13182 87.987057,149.41401 87.477284,149.60214 L 87.477284,148.01819 C 88.393662,147.58732 89.194736,147.06541 89.880508,146.45246 C 90.566271,145.83953 91.051771,145.24479 91.337007,144.66825 L 92.392969,144.66825 L 92.392969,158.06804 z M 96.598611,151.48648 C 96.59861,149.90862 96.760949,148.63873 97.085627,147.67683 C 97.410304,146.71494 97.892769,145.97304 98.533024,145.45111 C 99.173273,144.92922 99.978898,144.66826 100.9499,144.66825 C 101.66601,144.66826 102.29412,144.81239 102.83425,145.10064 C 103.37436,145.38892 103.82041,145.80463 104.17241,146.34777 C 104.52439,146.89094 104.80051,147.55243 105.00079,148.33225 C 105.20105,149.11209 105.30118,150.1635 105.30119,151.48648 C 105.30118,153.05222 105.14036,154.31604 104.81873,155.27793 C 104.49708,156.23983 104.01613,156.98325 103.37588,157.5082 C 102.73562,158.03314 101.92696,158.29562 100.9499,158.29562 C 99.663324,158.29562 98.652879,157.83439 97.918563,156.91194 C 97.038593,155.80136 96.59861,153.99288 96.598611,151.48648 L 96.598611,151.48648 z M 98.282688,151.48648 C 98.282685,153.6773 98.53909,155.13532 99.051901,155.86053 C 99.564707,156.58575 100.19737,156.94836 100.9499,156.94836 C 101.70242,156.94836 102.33509,156.58423 102.8479,155.85598 C 103.3607,155.12773 103.61711,153.67124 103.61712,151.48648 C 103.61711,149.28961 103.3607,147.83007 102.8479,147.10788 C 102.33509,146.38571 101.69635,146.02462 100.9317,146.02461 C 100.17917,146.02462 99.578361,146.34323 99.129278,146.98044 C 98.564882,147.79366 98.282685,149.29567 98.282688,151.48648 L 98.282688,151.48648 z "
         style="font-size:18.64319038px;font-style:normal;font-weight:normal;writing-mode:lr-tb;fill:#000000;fill-opacity:1;stroke:none;stroke-width:1px;stroke-linecap:butt;stroke-linejoin:miter;stroke-opacity:1;font-family:Arial" />
      <path
         transform="matrix(0.7212063,0,0,0.7867705,-212.62646,293.30326)"
         d="M 506.42856 168.42857 A 17.142857 15.714286 0 1 1  472.14285,168.42857 A 17.142857 15.714286 0 1 1  506.42856 168.42857 z"
         sodipodi:ry="15.714286"
         sodipodi:rx="17.142857"
         sodipodi:cy="168.42857"
         sodipodi:cx="489.28571"
         id="path3239"
         style="fill:#ffffff;fill-opacity:1;fill-rule:evenodd;stroke:#000000;stroke-width:1.32753575;stroke-linecap:round;stroke-miterlimit:4;stroke-dasharray:none;stroke-dashoffset:0;stroke-opacity:1"
         sodipodi:type="arc" />
      <path
         id="text3241"
         d="M 136.13498,432.32446 L 134.49642,432.32446 L 134.49642,421.88318 C 134.10195,422.25946 133.58459,422.63572 132.94434,423.01197 C 132.30408,423.38824 131.72907,423.67044 131.2193,423.85856 L 131.2193,422.27462 C 132.13567,421.84375 132.93675,421.32184 133.62252,420.70888 C 134.30828,420.09595 134.79378,419.50121 135.07902,418.92467 L 136.13498,418.92467 L 136.13498,432.32446 z M 148.95217,430.74962 L 148.95217,432.32446 L 140.13125,432.32446 C 140.11911,431.92999 140.18283,431.5507 140.32242,431.18657 C 140.54696,430.58577 140.90653,429.99407 141.40114,429.41146 C 141.89574,428.82887 142.61033,428.15524 143.54492,427.39057 C 144.99535,426.2011 145.97545,425.25893 146.48523,424.56405 C 146.995,423.86919 147.24988,423.21225 147.24989,422.59323 C 147.24988,421.94388 147.01775,421.39618 146.5535,420.95011 C 146.08924,420.50407 145.48388,420.28105 144.73743,420.28103 C 143.94849,420.28105 143.31734,420.51773 142.84398,420.99108 C 142.37062,421.46445 142.1309,422.11988 142.12483,422.95735 L 140.44076,422.78439 C 140.55606,421.52817 140.98998,420.57083 141.7425,419.91236 C 142.49502,419.25391 143.50547,418.92468 144.77384,418.92467 C 146.05434,418.92468 147.06782,419.2797 147.81428,419.98973 C 148.56073,420.69979 148.93396,421.57976 148.93397,422.62964 C 148.93396,423.1637 148.82472,423.68864 148.60626,424.20448 C 148.38777,424.72033 148.02516,425.26348 147.51843,425.83394 C 147.01169,426.40441 146.16965,427.18727 144.99232,428.18254 C 144.00918,429.0079 143.37803,429.56774 143.09887,429.86207 C 142.8197,430.15641 142.58909,430.45226 142.40703,430.74962 L 148.95217,430.74962 z "
         style="font-size:18.64319038px;font-style:normal;font-weight:normal;writing-mode:lr-tb;fill:#000000;fill-opacity:1;stroke:none;stroke-width:1px;stroke-linecap:butt;stroke-linejoin:miter;stroke-opacity:1;font-family:Arial" />
      <path
         transform="matrix(0.7212063,0,0,0.7867705,-133.32949,262.99869)"
         d="M 506.42856 168.42857 A 17.142857 15.714286 0 1 1  472.14285,168.42857 A 17.142857 15.714286 0 1 1  506.42856 168.42857 z"
         sodipodi:ry="15.714286"
         sodipodi:rx="17.142857"
         sodipodi:cy="168.42857"
         sodipodi:cx="489.28571"
         id="path3245"
         style="fill:#ffffff;fill-opacity:1;fill-rule:evenodd;stroke:#000000;stroke-width:1.32753575;stroke-linecap:round;stroke-miterlimit:4;stroke-dasharray:none;stroke-dashoffset:0;stroke-opacity:1"
         sodipodi:type="arc" />
      <path
         id="text3247"
         d="M 215.53198,402.01987 L 213.89342,402.01987 L 213.89342,391.57859 C 213.49895,391.95486 212.98159,392.33112 212.34134,392.70737 C 211.70108,393.08365 211.12607,393.36584 210.6163,393.55397 L 210.6163,391.97002 C 211.53268,391.53915 212.33375,391.01724 213.01952,390.40429 C 213.70529,389.79135 214.19079,389.19662 214.47602,388.62007 L 215.53198,388.62007 L 215.53198,402.01987 z M 219.74673,398.49696 L 221.38529,398.27848 C 221.57342,399.20701 221.89355,399.87608 222.34567,400.28572 C 222.79779,400.69536 223.34853,400.90018 223.99789,400.90018 C 224.76861,400.90018 225.41948,400.63316 225.95051,400.09911 C 226.48151,399.56506 226.74702,398.90357 226.74703,398.11463 C 226.74702,397.36211 226.50124,396.74158 226.00968,396.25304 C 225.5181,395.76451 224.89302,395.52025 224.13443,395.52024 C 223.82492,395.52025 223.43956,395.58093 222.97834,395.7023 L 223.1604,394.26401 C 223.26963,394.27615 223.35763,394.28222 223.42439,394.28221 C 224.12229,394.28222 224.7504,394.10016 225.30874,393.73603 C 225.86705,393.37191 226.14622,392.81055 226.14622,392.05195 C 226.14622,391.45115 225.94291,390.95352 225.53631,390.55904 C 225.1297,390.16458 224.60476,389.96735 223.96147,389.96734 C 223.32425,389.96735 222.79324,390.16762 222.36843,390.56814 C 221.94361,390.96869 221.67052,391.5695 221.54915,392.37056 L 219.91059,392.07926 C 220.11085,390.98083 220.56601,390.12969 221.27605,389.52583 C 221.98609,388.92201 222.8691,388.62009 223.92506,388.62007 C 224.65331,388.62009 225.3239,388.77636 225.93685,389.08888 C 226.54979,389.40144 227.0186,389.82777 227.34328,390.36787 C 227.66795,390.908 227.83029,391.4815 227.8303,392.08836 C 227.83029,392.6649 227.67554,393.18985 227.36604,393.6632 C 227.05653,394.13657 226.59834,394.51283 225.99147,394.79199 C 226.7804,394.97406 227.39334,395.35184 227.8303,395.92533 C 228.26724,396.49883 228.48571,397.21646 228.48572,398.07822 C 228.48571,399.24342 228.0609,400.23111 227.21129,401.04128 C 226.36166,401.85146 225.28749,402.25655 223.98878,402.25655 C 222.81751,402.25655 221.845,401.9076 221.07123,401.20969 C 220.29747,400.51178 219.85597,399.60754 219.74673,398.49696 L 219.74673,398.49696 z "
         style="font-size:18.64319038px;font-style:normal;font-weight:normal;writing-mode:lr-tb;fill:#000000;fill-opacity:1;stroke:none;stroke-width:1px;stroke-linecap:butt;stroke-linejoin:miter;stroke-opacity:1;font-family:Arial" />
      <path
         transform="matrix(0.7212063,0,0,0.7867705,-20.697476,294.81849)"
         d="M 506.42856 168.42857 A 17.142857 15.714286 0 1 1  472.14285,168.42857 A 17.142857 15.714286 0 1 1  506.42856 168.42857 z"
         sodipodi:ry="15.714286"
         sodipodi:rx="17.142857"
         sodipodi:cy="168.42857"
         sodipodi:cx="489.28571"
         id="path3251"
         style="fill:#ffffff;fill-opacity:1;fill-rule:evenodd;stroke:#000000;stroke-width:1.32753575;stroke-linecap:round;stroke-miterlimit:4;stroke-dasharray:none;stroke-dashoffset:0;stroke-opacity:1"
         sodipodi:type="arc" />
      <path
         id="text3253"
         d="M 327.76398,433.83969 L 326.12542,433.83969 L 326.12542,423.39841 C 325.73094,423.77468 325.21358,424.15095 324.57334,424.5272 C 323.93308,424.90347 323.35807,425.18567 322.84829,425.37379 L 322.84829,423.78985 C 323.76467,423.35898 324.56575,422.83706 325.25152,422.22411 C 325.93728,421.61118 326.42278,421.01644 326.70802,420.4399 L 327.76398,420.4399 L 327.76398,433.83969 z M 337.22212,433.83969 L 337.22212,430.6445 L 331.43254,430.6445 L 331.43254,429.14248 L 337.52252,420.49452 L 338.86068,420.49452 L 338.86068,429.14248 L 340.6631,429.14248 L 340.6631,430.6445 L 338.86068,430.6445 L 338.86068,433.83969 L 337.22212,433.83969 z M 337.22212,429.14248 L 337.22212,423.12532 L 333.04379,429.14248 L 337.22212,429.14248 z "
         style="font-size:18.64319038px;font-style:normal;font-weight:normal;writing-mode:lr-tb;fill:#000000;fill-opacity:1;stroke:none;stroke-width:1px;stroke-linecap:butt;stroke-linejoin:miter;stroke-opacity:1;font-family:Arial" />
      <path
         transform="matrix(0.7212063,0,0,0.7867705,-62.113728,365.02409)"
         d="M 506.42856 168.42857 A 17.142857 15.714286 0 1 1  472.14285,168.42857 A 17.142857 15.714286 0 1 1  506.42856 168.42857 z"
         sodipodi:ry="15.714286"
         sodipodi:rx="17.142857"
         sodipodi:cy="168.42857"
         sodipodi:cx="489.28571"
         id="path3257"
         style="fill:#ffffff;fill-opacity:1;fill-rule:evenodd;stroke:#000000;stroke-width:1.32753575;stroke-linecap:round;stroke-miterlimit:4;stroke-dasharray:none;stroke-dashoffset:0;stroke-opacity:1"
         sodipodi:type="arc" />
      <path
         id="text3259"
         d="M 286.54798,504.04526 L 284.90941,504.04526 L 284.90941,493.60398 C 284.51494,493.98025 283.99758,494.35651 283.35733,494.73277 C 282.71708,495.10904 282.14206,495.39123 281.63229,495.57936 L 281.63229,493.99541 C 282.54867,493.56454 283.34974,493.04263 284.03551,492.42968 C 284.72128,491.81674 285.20678,491.22201 285.49201,490.64546 L 286.54798,490.64546 L 286.54798,504.04526 z M 290.75362,500.54966 L 292.47411,500.40401 C 292.60155,501.2415 292.8974,501.87113 293.36166,502.29291 C 293.82592,502.71469 294.38576,502.92557 295.04119,502.92557 C 295.83012,502.92557 296.49768,502.62821 297.04387,502.03347 C 297.59005,501.43873 297.86315,500.6498 297.86315,499.66666 C 297.86315,498.73207 297.60067,497.99472 297.07573,497.4546 C 296.55078,496.91449 295.8635,496.64443 295.01388,496.64442 C 294.48589,496.64443 294.0095,496.76429 293.58469,497.00399 C 293.15987,497.24372 292.82609,497.55474 292.58334,497.93706 L 291.04492,497.7368 L 292.33756,490.88215 L 298.97373,490.88215 L 298.97373,492.44788 L 293.64841,492.44788 L 292.92926,496.03451 C 293.73033,495.4762 294.57085,495.19703 295.45083,495.19702 C 296.61602,495.19703 297.59916,495.6006 298.40024,496.40774 C 299.2013,497.21489 299.60184,498.25264 299.60185,499.52101 C 299.60184,500.72869 299.24985,501.77251 298.54589,502.65248 C 297.69019,503.73272 296.52195,504.27284 295.04119,504.27284 C 293.82743,504.27284 292.83671,503.93299 292.06902,503.25329 C 291.30132,502.57359 290.86285,501.67238 290.75362,500.54966 L 290.75362,500.54966 z "
         style="font-size:18.64319038px;font-style:normal;font-weight:normal;writing-mode:lr-tb;fill:#000000;fill-opacity:1;stroke:none;stroke-width:1px;stroke-linecap:butt;stroke-linejoin:miter;stroke-opacity:1;font-family:Arial" />
      <path
         transform="matrix(0.7212063,0,0,0.7867705,515.18845,525.13327)"
         d="M 506.42856 168.42857 A 17.142857 15.714286 0 1 1  472.14285,168.42857 A 17.142857 15.714286 0 1 1  506.42856 168.42857 z"
         sodipodi:ry="15.714286"
         sodipodi:rx="17.142857"
         sodipodi:cy="168.42857"
         sodipodi:cx="489.28571"
         id="path3263"
         style="fill:#ffffff;fill-opacity:1;fill-rule:evenodd;stroke:#000000;stroke-width:1.32753575;stroke-linecap:round;stroke-miterlimit:4;stroke-dasharray:none;stroke-dashoffset:0;stroke-opacity:1"
         sodipodi:type="arc" />
      <path
         id="text3265"
         d="M 864.14997,664.15448 L 862.5114,664.15448 L 862.5114,653.7132 C 862.11693,654.08947 861.59957,654.46574 860.95932,654.84199 C 860.31907,655.21826 859.74405,655.50046 859.23428,655.68858 L 859.23428,654.10464 C 860.15066,653.67376 860.95173,653.15185 861.6375,652.5389 C 862.32327,651.92597 862.80877,651.33123 863.094,650.75469 L 864.14997,650.75469 L 864.14997,664.15448 z M 876.85792,654.07733 L 875.22846,654.20477 C 875.08281,653.56149 874.87647,653.0942 874.60945,652.80289 C 874.16643,652.33561 873.62024,652.10196 872.97089,652.10195 C 872.44897,652.10196 871.99078,652.24761 871.59632,652.5389 C 871.08047,652.91517 870.67386,653.46439 870.3765,654.18656 C 870.07913,654.90875 869.92438,655.9374 869.91224,657.27252 C 870.30671,656.67172 870.78917,656.22567 871.35964,655.93436 C 871.93009,655.64307 872.52787,655.49742 873.15295,655.49741 C 874.24532,655.49742 875.17535,655.89948 875.94306,656.70358 C 876.71074,657.50769 877.09459,658.54696 877.0946,659.82139 C 877.09459,660.65889 876.91405,661.4372 876.55297,662.15635 C 876.19187,662.87549 875.69575,663.42623 875.06461,663.80856 C 874.43345,664.19089 873.71734,664.38206 872.91627,664.38206 C 871.5508,664.38206 870.43718,663.87987 869.57542,662.87549 C 868.71366,661.87112 868.28278,660.21587 868.28278,657.90974 C 868.28278,655.33053 868.75918,653.45529 869.71197,652.28401 C 870.54339,651.26447 871.66307,650.7547 873.07102,650.75469 C 874.12091,650.7547 874.98115,651.04903 875.65176,651.63769 C 876.32235,652.22637 876.7244,653.03958 876.85792,654.07733 L 876.85792,654.07733 z M 870.16713,659.8305 C 870.16713,660.3949 870.28698,660.93501 870.5267,661.45085 C 870.76641,661.9667 871.10171,662.35965 871.5326,662.62971 C 871.96347,662.89977 872.41559,663.0348 872.88896,663.0348 C 873.58079,663.0348 874.17553,662.75564 874.67317,662.19731 C 875.1708,661.63899 875.41962,660.88039 875.41963,659.92153 C 875.41962,658.99908 875.17384,658.27235 874.68228,657.74133 C 874.1907,657.21032 873.57169,656.94482 872.82524,656.94481 C 872.08485,656.94482 871.45673,657.21032 870.94089,657.74133 C 870.42505,658.27235 870.16713,658.96874 870.16713,659.8305 L 870.16713,659.8305 z "
         style="font-size:18.64319038px;font-style:normal;font-weight:normal;writing-mode:lr-tb;fill:#000000;fill-opacity:1;stroke:none;stroke-width:1px;stroke-linecap:butt;stroke-linejoin:miter;stroke-opacity:1;font-family:Arial" />
      <path
         transform="matrix(0.7212063,0,0,0.7867705,481.34834,472.60534)"
         d="M 506.42856 168.42857 A 17.142857 15.714286 0 1 1  472.14285,168.42857 A 17.142857 15.714286 0 1 1  506.42856 168.42857 z"
         sodipodi:ry="15.714286"
         sodipodi:rx="17.142857"
         sodipodi:cy="168.42857"
         sodipodi:cx="489.28571"
         id="path3269"
         style="fill:#ffffff;fill-opacity:1;fill-rule:evenodd;stroke:#000000;stroke-width:1.32753575;stroke-linecap:round;stroke-miterlimit:4;stroke-dasharray:none;stroke-dashoffset:0;stroke-opacity:1"
         sodipodi:type="arc" />
      <path
         id="text3271"
         d="M 830.20996,611.62653 L 828.5714,611.62653 L 828.5714,601.18525 C 828.17693,601.56152 827.65957,601.93778 827.01932,602.31403 C 826.37906,602.69031 825.80405,602.9725 825.29428,603.16062 L 825.29428,601.57668 C 826.21066,601.14581 827.01173,600.6239 827.6975,600.01094 C 828.38327,599.39801 828.86876,598.80328 829.154,598.22673 L 830.20996,598.22673 L 830.20996,611.62653 z M 834.52484,600.02915 L 834.52484,598.45431 L 843.1637,598.45431 L 843.1637,599.72875 C 842.31407,600.633 841.47203,601.83461 840.63759,603.33358 C 839.80313,604.83257 839.15832,606.37403 838.70317,607.95797 C 838.37546,609.07462 838.16609,610.29747 838.07506,611.62653 L 836.39098,611.62653 C 836.40918,610.57663 836.61552,609.30827 837.00999,607.82142 C 837.40446,606.33458 837.97037,604.90084 838.70773,603.5202 C 839.44507,602.13957 840.22946,600.97589 841.06088,600.02915 L 834.52484,600.02915 z "
         style="font-size:18.64319038px;font-style:normal;font-weight:normal;writing-mode:lr-tb;fill:#000000;fill-opacity:1;stroke:none;stroke-width:1px;stroke-linecap:butt;stroke-linejoin:miter;stroke-opacity:1;font-family:Arial" />
      <path
         transform="matrix(0.7212063,0,0,0.7867705,466.19605,392.29821)"
         d="M 506.42856 168.42857 A 17.142857 15.714286 0 1 1  472.14285,168.42857 A 17.142857 15.714286 0 1 1  506.42856 168.42857 z"
         sodipodi:ry="15.714286"
         sodipodi:rx="17.142857"
         sodipodi:cy="168.42857"
         sodipodi:cx="489.28571"
         id="path3275"
         style="fill:#ffffff;fill-opacity:1;fill-rule:evenodd;stroke:#000000;stroke-width:1.32753575;stroke-linecap:round;stroke-miterlimit:4;stroke-dasharray:none;stroke-dashoffset:0;stroke-opacity:1"
         sodipodi:type="arc" />
      <path
         id="text3277"
         d="M 814.75806,531.3194 L 813.1195,531.3194 L 813.1195,520.87812 C 812.72502,521.25439 812.20766,521.63065 811.56742,522.0069 C 810.92716,522.38318 810.35215,522.66537 809.84237,522.8535 L 809.84237,521.26955 C 810.75875,520.83868 811.55983,520.31677 812.2456,519.70382 C 812.93136,519.09088 813.41686,518.49615 813.7021,517.9196 L 814.75806,517.9196 L 814.75806,531.3194 z M 821.48526,524.08242 C 820.80556,523.83361 820.30186,523.47858 819.97415,523.01735 C 819.64643,522.55614 819.48258,522.00388 819.48258,521.36058 C 819.48258,520.38959 819.83153,519.57335 820.52944,518.91184 C 821.22734,518.25036 822.15586,517.91962 823.31499,517.9196 C 824.48018,517.91962 825.41781,518.25795 826.12786,518.9346 C 826.83789,519.61128 827.19291,520.43511 827.19292,521.4061 C 827.19291,522.02512 827.03057,522.56372 826.7059,523.0219 C 826.38122,523.4801 825.88813,523.83361 825.22665,524.08242 C 826.04592,524.34945 826.66948,524.78033 827.09734,525.37506 C 827.52518,525.9698 827.7391,526.67984 827.73911,527.50519 C 827.7391,528.64612 827.33553,529.60498 826.52839,530.38178 C 825.72124,531.15858 824.65921,531.54697 823.3423,531.54697 C 822.02538,531.54697 820.96335,531.15706 820.15621,530.37722 C 819.34906,529.59739 818.94549,528.62488 818.94549,527.45967 C 818.94549,526.59185 819.16548,525.86512 819.60547,525.27948 C 820.04545,524.69385 820.67205,524.29483 821.48526,524.08242 L 821.48526,524.08242 z M 821.15755,521.30596 C 821.15755,521.93712 821.36085,522.45297 821.76746,522.8535 C 822.17406,523.25404 822.70204,523.45431 823.3514,523.4543 C 823.98255,523.45431 824.49991,523.25556 824.90349,522.85805 C 825.30705,522.46055 825.50884,521.97354 825.50884,521.397 C 825.50884,520.7962 825.30098,520.29098 824.88528,519.88133 C 824.46956,519.4717 823.9522,519.26688 823.3332,519.26687 C 822.70811,519.26688 822.18923,519.46715 821.77656,519.86767 C 821.36389,520.26822 821.15755,520.74765 821.15755,521.30596 L 821.15755,521.30596 z M 820.62957,527.46878 C 820.62957,527.93607 820.74032,528.3882 820.96183,528.82514 C 821.18334,529.26209 821.51257,529.60043 821.94952,529.84014 C 822.38647,530.07986 822.8568,530.19971 823.36051,530.19971 C 824.14337,530.19971 824.78969,529.94786 825.29947,529.44415 C 825.80924,528.94045 826.06413,528.3002 826.06413,527.5234 C 826.06413,526.73446 825.80165,526.08207 825.27671,525.56622 C 824.75176,525.05039 824.09482,524.79247 823.30589,524.79246 C 822.53515,524.79247 821.89642,525.04735 821.38968,525.55712 C 820.88294,526.0669 820.62957,526.70412 820.62957,527.46878 L 820.62957,527.46878 z "
         style="font-size:18.64319038px;font-style:normal;font-weight:normal;writing-mode:lr-tb;fill:#000000;fill-opacity:1;stroke:none;stroke-width:1px;stroke-linecap:butt;stroke-linejoin:miter;stroke-opacity:1;font-family:Arial" />
      <path
         transform="matrix(0.6783964,0,0,0.7537739,-278.61912,115.09874)"
         d="M 516.44048 213.32161 A 3.7880721 3.4092648 0 1 1  508.86433,213.32161 A 3.7880721 3.4092648 0 1 1  516.44048 213.32161 z"
         sodipodi:ry="3.4092648"
         sodipodi:rx="3.7880721"
         sodipodi:cy="213.32161"
         sodipodi:cx="512.6524"
         id="path3281"
         style="fill:#ffffff;fill-opacity:1;fill-rule:evenodd;stroke:#ffffff;stroke-width:4;stroke-linecap:round;stroke-miterlimit:4;stroke-dasharray:none;stroke-dashoffset:0;stroke-opacity:1"
         sodipodi:type="arc" />
      <path
         transform="matrix(0.7212063,0,0,0.7867705,-303.54019,152.89206)"
         d="M 506.42856 168.42857 A 17.142857 15.714286 0 1 1  472.14285,168.42857 A 17.142857 15.714286 0 1 1  506.42856 168.42857 z"
         sodipodi:ry="15.714286"
         sodipodi:rx="17.142857"
         sodipodi:cy="168.42857"
         sodipodi:cx="489.28571"
         id="path3283"
         style="fill:#ffffff;fill-opacity:1;fill-rule:evenodd;stroke:#000000;stroke-width:1.32753575;stroke-linecap:round;stroke-miterlimit:4;stroke-dasharray:none;stroke-dashoffset:0;stroke-opacity:1"
         sodipodi:type="arc" />
      <path
         id="text3285"
         d="M 45.721243,291.91327 L 44.082681,291.91327 L 44.082681,281.47199 C 43.688208,281.84826 43.170848,282.22452 42.530599,282.60078 C 41.890344,282.97705 41.31533,283.25924 40.805558,283.44737 L 40.805558,281.86342 C 41.721936,281.43255 42.52301,280.91064 43.208782,280.29769 C 43.894545,279.68476 44.380044,279.09002 44.665281,278.51348 L 45.721243,278.51348 L 45.721243,291.91327 z M 56.0988,291.91327 L 54.460238,291.91327 L 54.460238,281.47199 C 54.065765,281.84826 53.548405,282.22452 52.908156,282.60078 C 52.2679,282.97705 51.692887,283.25924 51.183115,283.44737 L 51.183115,281.86342 C 52.099493,281.43255 52.900567,280.91064 53.586339,280.29769 C 54.272102,279.68476 54.757601,279.09002 55.042838,278.51348 L 56.0988,278.51348 L 56.0988,291.91327 z "
         style="font-size:18.64319038px;font-style:normal;font-weight:normal;writing-mode:lr-tb;fill:#000000;fill-opacity:1;stroke:none;stroke-width:1px;stroke-linecap:butt;stroke-linejoin:miter;stroke-opacity:1;font-family:Arial" />
    </g>
  </g>
</svg>
